<svg width="180" height="90" viewBox="0 0 845 336" fill="none" xmlns="http://www.w3.org/2000/svg">
<path d="M126.233 228.797H98.1983V154.414L77.7748 202.42H58.5572L38.1338 154.414V228.797H11.6059V116.581H44.0875L68.9574 171.973L93.7519 116.581H126.233V228.797ZM317.656 144.164L287.285 228.797H258.496L228.351 144.164H256.084L273.418 200.159L290.525 144.164H317.656ZM354.207 228.797H327.83V144.164H354.207V228.797ZM354.961 132.106H327.076V111.532H354.961V132.106ZM417.738 231.058C401.761 231.058 389.502 227.24 380.961 219.603C372.47 211.966 368.225 201.089 368.225 186.971C368.225 173.154 372.194 162.126 380.132 153.886C388.07 145.647 399.174 141.527 413.443 141.527C426.405 141.527 436.152 145.019 442.684 152.002C449.215 158.986 452.481 168.984 452.481 181.997V191.493H394.677C394.928 195.411 395.757 198.702 397.164 201.365C398.571 203.978 400.43 206.063 402.741 207.62C405.002 209.178 407.64 210.308 410.654 211.012C413.669 211.665 416.96 211.991 420.527 211.991C423.592 211.991 426.606 211.665 429.57 211.012C432.535 210.308 435.248 209.404 437.71 208.299C439.87 207.344 441.855 206.314 443.663 205.209C445.522 204.103 447.03 203.124 448.185 202.269H450.974V224.049C448.813 224.904 446.829 225.707 445.02 226.461C443.261 227.164 440.825 227.893 437.71 228.647C434.846 229.4 431.882 229.978 428.817 230.38C425.802 230.832 422.109 231.058 417.738 231.058ZM426.481 175.591C426.33 170.014 425.023 165.769 422.562 162.854C420.15 159.94 416.432 158.483 411.408 158.483C406.283 158.483 402.264 160.016 399.35 163.081C396.486 166.145 394.903 170.315 394.602 175.591H426.481ZM493.403 228.797H466.724V199.18H493.403V228.797Z" fill="white"/>
<circle cx="677.332" cy="167.602" r="167.602" fill="white"/>
<path d="M645.203 228.797H618.072L574.813 150.57V228.797H549.039V116.581H583.631L619.428 180.866V116.581H645.203V228.797ZM709.789 231.058C693.812 231.058 681.553 227.24 673.012 219.603C664.521 211.966 660.275 201.089 660.275 186.971C660.275 173.154 664.244 162.126 672.183 153.886C680.121 145.647 691.224 141.527 705.493 141.527C718.456 141.527 728.203 145.019 734.734 152.002C741.266 158.986 744.531 168.984 744.531 181.997V191.493H686.728C686.979 195.411 687.808 198.702 689.215 201.365C690.622 203.978 692.481 206.063 694.792 207.62C697.053 209.178 699.69 210.308 702.705 211.012C705.719 211.665 709.01 211.991 712.577 211.991C715.642 211.991 718.657 211.665 721.621 211.012C724.585 210.308 727.298 209.404 729.76 208.299C731.921 207.344 733.905 206.314 735.714 205.209C737.573 204.103 739.08 203.124 740.236 202.269H743.024V224.049C740.864 224.904 738.879 225.707 737.07 226.461C735.312 227.164 732.875 227.893 729.76 228.647C726.896 229.4 723.932 229.978 720.867 230.38C717.853 230.832 714.16 231.058 709.789 231.058ZM718.531 175.591C718.38 170.014 717.074 165.769 714.612 162.854C712.201 159.94 708.483 158.483 703.458 158.483C698.334 158.483 694.314 160.016 691.4 163.081C688.536 166.145 686.954 170.315 686.652 175.591H718.531ZM790.503 230.455C779.751 230.455 771.913 228.245 766.99 223.823C762.116 219.402 759.679 212.167 759.679 202.119V162.553H749.581V144.164H759.679V119.973H786.057V144.164H811.454V162.553H786.057V192.548C786.057 195.512 786.082 198.099 786.132 200.31C786.182 202.521 786.584 204.505 787.338 206.264C788.041 208.022 789.272 209.429 791.03 210.484C792.839 211.489 795.452 211.991 798.868 211.991C800.275 211.991 802.109 211.69 804.37 211.087C806.681 210.484 808.289 209.931 809.193 209.429H811.454V228.044C808.59 228.797 805.55 229.375 802.335 229.777C799.119 230.229 795.175 230.455 790.503 230.455Z" fill="#050532"/>
<path d="M182.839 175.912C188.193 175.912 192.535 171.571 192.535 166.216C192.535 160.861 188.193 156.52 182.839 156.52C177.484 156.52 173.143 160.861 173.143 166.216C173.143 171.571 177.484 175.912 182.839 175.912Z" fill="white"/>
<path d="M163.446 195.304C168.801 195.304 173.142 190.963 173.142 185.608C173.142 180.253 168.801 175.912 163.446 175.912C158.091 175.912 153.75 180.253 153.75 185.608C153.75 190.963 158.091 195.304 163.446 195.304Z" fill="white"/>
<path d="M202.23 195.304C207.585 195.304 211.926 190.963 211.926 185.608C211.926 180.253 207.585 175.912 202.23 175.912C196.875 175.912 192.534 180.253 192.534 185.608C192.534 190.963 196.875 195.304 202.23 195.304Z" fill="white"/>
<path d="M182.839 214.696C188.193 214.696 192.535 210.355 192.535 205C192.535 199.645 188.193 195.304 182.839 195.304C177.484 195.304 173.143 199.645 173.143 205C173.143 210.355 177.484 214.696 182.839 214.696Z" fill="white"/>
<path d="M182.838 137.128C172.663 137.128 162.746 140.33 154.491 146.279C146.237 152.229 140.063 160.625 136.846 170.278C133.628 179.93 133.529 190.351 136.563 200.063C139.597 209.776 145.61 218.287 153.75 224.392H134.358V234.088H182.838C195.695 234.088 208.026 228.98 217.118 219.889C226.21 210.797 231.318 198.466 231.318 185.608C231.318 172.751 226.21 160.419 217.118 151.328C208.026 142.236 195.695 137.128 182.838 137.128ZM182.838 224.392C175.167 224.392 167.669 222.117 161.291 217.856C154.913 213.594 149.942 207.537 147.006 200.45C144.071 193.363 143.303 185.565 144.799 178.042C146.296 170.518 149.989 163.608 155.413 158.184C160.837 152.76 167.748 149.066 175.271 147.57C182.795 146.073 190.593 146.841 197.68 149.777C204.766 152.712 210.824 157.683 215.085 164.061C219.347 170.439 221.622 177.937 221.622 185.608C221.622 195.894 217.535 205.759 210.262 213.033C202.989 220.306 193.124 224.392 182.838 224.392Z" fill="white"/>
</svg>
